<?xml version="1.0" encoding="utf-8"?>
<!-- Generator: Adobe Illustrator 16.0.0, SVG Export Plug-In . SVG Version: 6.00 Build 0)  -->
<!DOCTYPE svg PUBLIC "-//W3C//DTD SVG 1.1//EN" "http://www.w3.org/Graphics/SVG/1.1/DTD/svg11.dtd">
<svg version="1.1" xmlns="http://www.w3.org/2000/svg" xmlns:xlink="http://www.w3.org/1999/xlink" x="0px" y="0px" width="136px"
	 height="40px" viewBox="0 0 136 40" enable-background="new 0 0 136 40" xml:space="preserve">
<g id="Icon">
	<path fill="#7AB317" d="M16.30566,1.53027c-1.78711,1.78711-2.00879,4.54688-0.66504,6.5752L8.10547,15.6416
		c-2.0293-1.34375-4.78809-1.12207-6.5752,0.66504c-2.04004,2.04004-2.04004,5.34766,0,7.3877
		c1.78711,1.78809,4.5459,2.00879,6.5752,0.66504l7.53516,7.53516c-1.34375,2.0293-1.12207,4.78906,0.66504,6.57617
		c2.04004,2.04004,5.34766,2.04004,7.3877,0c2.04102-2.04102,2.04102-5.34766,0-7.38867
		c-1.78711-1.78613-4.5459-2.00781-6.57422-0.66406l-7.53613-7.53613c1.15332-1.74121,1.15332-4.02148,0-5.7627l7.53613-7.53613
		c2.02832,1.34375,4.78711,1.12207,6.57422-0.66504c2.04102-2.04004,2.04102-5.34766,0-7.3877
		C21.65332-0.50977,18.3457-0.50977,16.30566,1.53027z M22.21582,32.56055c1.22461,1.22363,1.22461,3.20801,0,4.43164
		c-1.22363,1.22461-3.20801,1.22461-4.43262,0c-1.22363-1.22363-1.22363-3.20801,0-4.43164
		C19.00781,31.33594,20.99219,31.33594,22.21582,32.56055z M7.44043,22.2168c-1.22461,1.22461-3.20898,1.22461-4.43262,0
		c-1.22461-1.22461-1.22461-3.20898,0-4.43262c1.22363-1.22461,3.20801-1.22461,4.43262,0
		C8.66406,19.00781,8.66406,20.99219,7.44043,22.2168z M22.21582,7.44043c-1.22363,1.22461-3.20801,1.22461-4.43262,0
		c-1.22363-1.22363-1.22363-3.20801,0-4.43262c1.22461-1.22363,3.20898-1.22363,4.43262,0
		C23.44043,4.23242,23.44043,6.2168,22.21582,7.44043z"/>
</g>
<g id="Text">
	<g>
		<path fill="#1358CD" d="M35.70801,23.30566c0.85938,0.52832,2.11523,0.96777,3.43652,0.96777
			c1.96094,0,3.10547-1.03418,3.10547-2.5332c0-1.3877-0.79199-2.18066-2.79688-2.95215
			c-2.42285-0.8584-3.9209-2.11426-3.9209-4.20605c0-2.31348,1.91602-4.03125,4.80176-4.03125
			c1.52051,0,2.62109,0.35156,3.28223,0.72656l-0.52832,1.56348c-0.48438-0.26367-1.47559-0.7041-2.82031-0.7041
			c-2.02637,0-2.79688,1.21094-2.79688,2.22461c0,1.38672,0.90332,2.07031,2.95117,2.86328
			c2.51172,0.96973,3.78906,2.18066,3.78906,4.36133c0,2.29102-1.69629,4.27344-5.19824,4.27344
			c-1.43262,0-2.99609-0.41699-3.78906-0.94629L35.70801,23.30566z"/>
		<path fill="#1358CD" d="M48.50391,11.98242c0.02148,0.66016-0.46289,1.18945-1.23438,1.18945
			c-0.68262,0-1.16797-0.5293-1.16797-1.18945c0-0.68262,0.50781-1.21191,1.21191-1.21191
			C48.04102,10.77051,48.50391,11.2998,48.50391,11.98242z M46.34375,25.63867V14.97754h1.93945v10.66113H46.34375z"/>
		<path fill="#1358CD" d="M51.16113,17.86328c0-1.10156-0.02246-2.00488-0.08789-2.88574h1.69629l0.08789,1.71875h0.06641
			c0.59473-1.01367,1.58594-1.96094,3.34863-1.96094c1.4541,0,2.55469,0.88184,3.0166,2.13672h0.04492
			c0.33008-0.59473,0.74902-1.05762,1.18945-1.3877c0.63867-0.48438,1.34375-0.74902,2.35742-0.74902
			c1.40918,0,3.50098,0.92578,3.50098,4.62598v6.27734h-1.89355v-6.03418c0-2.04883-0.74805-3.2832-2.31348-3.2832
			c-1.10059,0-1.95996,0.81543-2.29004,1.7627c-0.08789,0.26465-0.1543,0.61719-0.1543,0.96875v6.58594h-1.89453v-6.3877
			c0-1.69531-0.75-2.92969-2.22461-2.92969c-1.21191,0-2.09277,0.96973-2.40137,1.93848
			c-0.11035,0.28711-0.1543,0.61719-0.1543,0.94727v6.43164h-1.89453V17.86328z"/>
		<path fill="#1358CD" d="M69.2207,18.45898c0-1.36621-0.04395-2.46777-0.08789-3.48145h1.73926l0.08887,1.82812h0.04395
			c0.79297-1.29883,2.04883-2.07031,3.78906-2.07031c2.57715,0,4.51562,2.18066,4.51562,5.41895
			c0,3.83398-2.33594,5.72656-4.8457,5.72656c-1.41016,0-2.64355-0.61621-3.2832-1.67383H71.1377V30H69.2207V18.45898z
			 M71.1377,21.2998c0,0.28613,0.04297,0.55176,0.08789,0.79395c0.35156,1.34277,1.51953,2.26758,2.90723,2.26758
			c2.04883,0,3.23828-1.67285,3.23828-4.11914c0-2.13672-1.12305-3.96484-3.17188-3.96484
			c-1.32227,0-2.55566,0.94727-2.92969,2.40137c-0.06641,0.24219-0.13184,0.52832-0.13184,0.79297V21.2998z"/>
		<path fill="#1358CD" d="M81.59473,10h1.9375v15.63867h-1.9375V10z"/>
		<path fill="#1358CD" d="M87.66699,20.66113c0.04395,2.62109,1.71777,3.7002,3.65625,3.7002
			c1.38867,0,2.22559-0.24219,2.95117-0.55078l0.33105,1.3877c-0.68262,0.30957-1.85059,0.66113-3.5459,0.66113
			c-3.28223,0-5.24316-2.1582-5.24316-5.37402c0-3.2168,1.89453-5.75,5.00098-5.75c3.47949,0,4.40527,3.06152,4.40527,5.02246
			c0,0.39648-0.04492,0.70508-0.06641,0.90332H87.66699z M93.34961,19.27344c0.02246-1.2334-0.50586-3.15039-2.68652-3.15039
			c-1.96094,0-2.81934,1.80664-2.97363,3.15039H93.34961z"/>
	</g>
	<g>
		<path fill="#2683FF" d="M99.40527,25.63867l-3.76855-14.84668h2.02734l1.7627,7.51172
			c0.44043,1.85059,0.83691,3.70215,1.10156,5.13281h0.04297c0.24219-1.47559,0.70508-3.23828,1.21191-5.1543l1.98242-7.49023
			h2.00391l1.80762,7.53418c0.41797,1.76172,0.81543,3.52539,1.03516,5.08887h0.04395
			c0.30762-1.62988,0.72754-3.2832,1.18945-5.13281l1.95996-7.49023h1.96094l-4.20703,14.84668h-2.00391l-1.87402-7.73145
			c-0.46191-1.89453-0.77051-3.34766-0.96875-4.8457h-0.04395c-0.26367,1.47656-0.59473,2.92969-1.14453,4.8457l-2.11523,7.73145
			H99.40527z"/>
		<path fill="#2683FF" d="M115.83105,20.66113c0.04395,2.62109,1.71777,3.7002,3.65723,3.7002
			c1.3877,0,2.22461-0.24219,2.95215-0.55078l0.33008,1.3877c-0.68359,0.30957-1.85059,0.66113-3.54785,0.66113
			c-3.28125,0-5.24121-2.1582-5.24121-5.37402c0-3.2168,1.89355-5.75,4.99902-5.75c3.48145,0,4.40625,3.06152,4.40625,5.02246
			c0,0.39648-0.04492,0.70508-0.06641,0.90332H115.83105z M121.51367,19.27344c0.02344-1.2334-0.50586-3.15039-2.68652-3.15039
			c-1.96094,0-2.82031,1.80664-2.97461,3.15039H121.51367z"/>
		<path fill="#2683FF" d="M125.47656,25.63867c0.04297-0.72559,0.08789-1.80469,0.08789-2.75293V10h1.91602v6.69629h0.04297
			c0.68359-1.18945,1.91895-1.96094,3.63574-1.96094c2.64453,0,4.51562,2.20312,4.49414,5.44141
			c0,3.81152-2.40039,5.7041-4.78027,5.7041c-1.54199,0-2.77539-0.59277-3.56738-2.00391h-0.06641l-0.08789,1.76172H125.47656z
			 M127.48047,21.36621c0,0.24121,0.04297,0.48535,0.08789,0.7041c0.375,1.34473,1.49902,2.26953,2.9082,2.26953
			c2.02734,0,3.23926-1.65137,3.23926-4.09766c0-2.13672-1.10254-3.96484-3.17285-3.96484
			c-1.32129,0-2.55469,0.90332-2.95312,2.37988c-0.04297,0.21973-0.10938,0.4834-0.10938,0.79297V21.36621z"/>
	</g>
</g>
</svg>
